<svg width="19" height="22" viewBox="0 0 19 22" fill="none" xmlns="http://www.w3.org/2000/svg">
<path d="M9.50555 8.14268C9.6838 8.14278 9.86032 8.10775 10.025 8.03958C10.1897 7.97142 10.3394 7.87146 10.4654 7.74542C10.5914 7.61938 10.6914 7.46973 10.7596 7.30503C10.8277 7.14033 10.8628 6.96381 10.8627 6.78557V1.35711C10.8627 0.997185 10.7197 0.651997 10.4652 0.397489C10.2107 0.142981 9.86548 0 9.50555 0C9.14562 0 8.80043 0.142981 8.54593 0.397489C8.29142 0.651997 8.14844 0.997185 8.14844 1.35711V6.78557C8.14834 6.96381 8.18337 7.14033 8.25154 7.30503C8.3197 7.46973 8.41966 7.61938 8.5457 7.74542C8.67174 7.87146 8.82139 7.97142 8.98609 8.03958C9.15078 8.10775 9.3273 8.14278 9.50555 8.14268Z" fill="white"/>
<path d="M15.835 5.19652C15.5667 4.95866 15.2153 4.83661 14.8573 4.857C14.4994 4.8774 14.1641 5.0386 13.9246 5.3054C13.6851 5.57219 13.561 5.92291 13.5792 6.28095C13.5974 6.63899 13.7566 6.97528 14.0219 7.21636C14.7332 7.84032 15.303 8.60892 15.6934 9.47077C16.0837 10.3326 16.2856 11.2679 16.2856 12.214C16.2856 14.0137 15.5707 15.7396 14.2981 17.0121C13.0256 18.2847 11.2996 18.9996 9.5 18.9996C7.70036 18.9996 5.97442 18.2847 4.70188 17.0121C3.42934 15.7396 2.71443 14.0137 2.71443 12.214C2.71435 11.2679 2.91623 10.3326 3.3066 9.47074C3.69696 8.60887 4.26681 7.84026 4.97805 7.21629C5.2434 6.97521 5.40257 6.63893 5.4208 6.28088C5.43904 5.92284 5.31486 5.57212 5.07538 5.30533C4.83591 5.03853 4.50059 4.87734 4.14266 4.85694C3.78473 4.83654 3.43328 4.9586 3.16504 5.19646C1.73142 6.47932 0.72106 8.16721 0.267637 10.0368C-0.185787 11.9064 -0.0609069 13.8696 0.625755 15.6667C1.31242 17.4638 2.5285 19.0101 4.11311 20.1009C5.69773 21.1918 7.5762 21.7759 9.5 21.7759C11.4238 21.7759 13.3023 21.1918 14.8869 20.1009C16.4715 19.0101 17.6876 17.4638 18.3742 15.6667C19.0609 13.8696 19.1858 11.9064 18.7324 10.0368C18.2789 8.16721 17.2686 6.47939 15.835 5.19652Z" fill="white"/>
</svg>
