<svg width="17" height="19" viewBox="0 0 17 19" fill="none" xmlns="http://www.w3.org/2000/svg">
<path d="M15.5635 11.2964L15.1938 11.0068C15.0944 10.9293 15.0141 10.831 14.9589 10.7193C14.9038 10.6076 14.8751 10.4852 14.875 10.3613V7.01799C14.8745 5.58124 14.362 4.18916 13.425 3.07919C12.488 1.96923 11.1845 1.21014 9.73675 0.931408C9.66616 0.664856 9.50657 0.428708 9.28308 0.260103C9.05958 0.0914974 8.78486 0 8.50212 0C8.21939 0 7.94467 0.0914974 7.72117 0.260103C7.49768 0.428708 7.33809 0.664856 7.2675 0.931408C5.81901 1.20929 4.51449 1.96802 3.57663 3.07806C2.63876 4.18811 2.12569 5.58066 2.125 7.01799V10.3613C2.12492 10.4852 2.09624 10.6076 2.04106 10.7193C1.98589 10.831 1.90565 10.9293 1.80625 11.0068L1.4365 11.2964C0.989945 11.644 0.629098 12.0846 0.380502 12.5858C0.131906 13.0871 0.00188427 13.6362 0 14.1928V14.8797C0 15.3186 0.179107 15.7396 0.497918 16.05C0.81673 16.3604 1.24913 16.5347 1.7 16.5347H5.2105C5.40209 17.2413 5.82846 17.8663 6.42311 18.3122C7.01776 18.7582 7.74727 19 8.49788 19C9.24848 19 9.97799 18.7582 10.5726 18.3122C11.1673 17.8663 11.5937 17.2413 11.7852 16.5347H15.3C15.7509 16.5347 16.1833 16.3604 16.5021 16.05C16.8209 15.7396 17 15.3186 17 14.8797V14.2011C16.9994 13.6431 16.87 13.0923 16.6213 12.5896C16.3727 12.0868 16.0112 11.6448 15.5635 11.2964ZM8.5 17.3623C8.20333 17.3605 7.91229 17.2832 7.65581 17.1381C7.39933 16.9929 7.18633 16.7849 7.038 16.5347H9.96625C9.81755 16.7855 9.60389 16.9939 9.3466 17.1391C9.08931 17.2843 8.7974 17.3613 8.5 17.3623ZM15.3 14.8797H1.7V14.2011C1.70045 13.891 1.77249 13.585 1.9108 13.3057C2.0491 13.0263 2.25012 12.7809 2.499 12.5874L2.86875 12.2977C3.16694 12.0653 3.40768 11.7706 3.57319 11.4354C3.73871 11.1003 3.82476 10.7332 3.825 10.3613V7.01799C3.825 5.81086 4.31754 4.65317 5.19428 3.7996C6.07101 2.94603 7.26011 2.4665 8.5 2.4665C9.73989 2.4665 10.929 2.94603 11.8057 3.7996C12.6825 4.65317 13.175 5.81086 13.175 7.01799V10.3613C13.1746 10.7339 13.2603 11.1018 13.4259 11.4377C13.5914 11.7736 13.8325 12.069 14.1313 12.3019L14.501 12.5915C14.7493 12.7846 14.95 13.0294 15.0883 13.3079C15.2266 13.5865 15.2989 13.8917 15.3 14.2011V14.8797Z" fill="white"/>
</svg>
